<?xml version="1.0" encoding="UTF-8" standalone="no"?>
<svg
   xmlns:dc="http://purl.org/dc/elements/1.1/"
   xmlns:cc="http://creativecommons.org/ns#"
   xmlns:rdf="http://www.w3.org/1999/02/22-rdf-syntax-ns#"
   xmlns:svg="http://www.w3.org/2000/svg"
   xmlns="http://www.w3.org/2000/svg"
   xmlns:sodipodi="http://sodipodi.sourceforge.net/DTD/sodipodi-0.dtd"
   xmlns:inkscape="http://www.inkscape.org/namespaces/inkscape"
   version="1.1"
   id="svg10"
   xml:space="preserve"
   width="912"
   height="197.33333"
   viewBox="0 0 912 197.33333"
   sodipodi:docname="logo.svg"
   inkscape:version="1.0.1 (3bc2e813f5, 2020-09-07)"><metadata
     id="metadata16"><rdf:RDF><cc:Work
         rdf:about=""><dc:format>image/svg+xml</dc:format><dc:type
           rdf:resource="http://purl.org/dc/dcmitype/StillImage" /><dc:title /></cc:Work></rdf:RDF></metadata><defs
     id="defs14"><clipPath
       clipPathUnits="userSpaceOnUse"
       id="clipPath84"><path
         d="m 1291.09,324.141 c 0,-18.243 -7.89,-28.403 -23.59,-30.469 -15.62,-2.07 -54.22,-3.121 -115.78,-3.121 -63.67,0 -103.28,1.558 -118.91,4.679 -15.62,3.129 -23.43,15.86 -23.43,38.29 0,24.058 0.78,59.921 2.34,107.652 1.56,47.699 2.34,83.519 2.34,107.5 0,91.25 -1.05,156.168 -3.12,194.848 -3.13,62.07 -32.62,93.121 -88.44,93.121 -24.488,0 -48.871,-10.313 -73.121,-30.942 -24.301,-20.621 -37.738,-43.429 -40.32,-68.429 -2.11,-21.879 -3.118,-86.059 -3.118,-192.5 0,-24.5 0.778,-61.649 2.34,-111.411 1.559,-49.808 2.348,-87.269 2.348,-112.339 0,-17.192 -7.578,-25.79 -22.66,-25.79 H 550.941 c -14.613,0 -21.882,10.668 -21.882,32.04 0,24.57 0.781,61.32 2.351,110.308 1.559,49.063 2.34,86.094 2.34,111.094 0,19.258 -0.551,48.437 -1.559,87.5 -1.062,39.137 -1.562,68.668 -1.562,88.598 0,74.57 -28.438,111.871 -85.32,111.871 -22.93,0 -47.727,-8.911 -74.368,-26.719 -29.179,-19.301 -43.75,-39.613 -43.75,-60.942 0,-47.5 0.231,-118.429 0.778,-212.808 0.511,-94.371 0.781,-165.082 0.781,-212.031 0,-13.051 -1.559,-21.09 -4.691,-24.219 -3.118,-3.121 -11.207,-5.192 -24.219,-6.25 -23.43,-2.07 -60.461,-3.121 -111.09,-3.121 -32.93,0 -70.23,1.558 -111.8711,4.679 -12.5,1.02 -19.9687,2.86 -22.3476,5.469 -2.3008,2.582 -3.4415,10.391 -3.4415,23.442 0,41.757 0.2383,104.218 0.7891,187.339 0.5,83.211 0.7813,145.711 0.7813,187.5 0,85.508 -6.25,181.719 -18.75,288.602 -1.0586,6.25 -1.5704,10.938 -1.5704,14.058 0,8.83 3.6407,14.84 10.9415,17.97 11.4492,4.69 33.0468,8.59 64.8477,11.72 39.141,3.63 62.383,5.97 69.68,7.03 5.203,1.13 25.781,6.64 61.722,16.56 25.629,7.27 46.25,10.94 61.879,10.94 9.879,0 15.07,-18.13 15.621,-54.38 0.508,-36.25 2.578,-54.371 6.25,-54.371 5.199,2.071 11.168,5.7 17.969,10.942 46.949,36.439 83.98,61.479 111.09,75.149 40.199,19.26 83.75,28.91 130.629,28.91 48.011,0 90.781,-10.7 128.281,-32.03 42.27,-24.06 69.691,-57.74 82.191,-100.939 27.688,37.5 65.778,68.979 114.219,94.529 48.512,25.63 95.7,38.44 141.56,38.44 68.83,0 124.92,-15.94 168.28,-47.81 49.06,-35.941 73.59,-87.312 73.59,-154.07 0,-27.609 -0.86,-69.21 -2.5,-124.839 -1.56,-55.551 -2.34,-97.11 -2.34,-124.692 0,-32.929 0.78,-82.34 2.34,-148.277 1.64,-65.942 2.5,-115.391 2.5,-148.281 z m 916.72,528.91 c 0,-101.18 -3.12,-162.742 -9.37,-184.692 -7.81,-26.058 -64.92,-120.429 -171.25,-283.129 -16.8,-25.621 -59.81,-84.839 -129.06,-177.652 -76.68,-102.187 -120.28,-156.1288 -130.79,-161.8788 -12.5,-7.8086 -92.57,-11.7187 -240.15,-11.7187 -22.42,0 -37.5,2.6211 -45.31,7.8203 -6.8,21.3594 -15.4,46.6406 -25.79,75.7812 -8.36,18.359 -16.68,36.867 -25,55.617 -12.11,27.11 -18.12,45.082 -18.12,53.91 0,10 4.41,15 13.28,15 145,0 217.5,33.09 217.5,99.219 0,5.703 -35.47,57.652 -106.41,155.781 -73.55,100.621 -113.98,164.219 -121.25,190.782 -4.18,15.199 -6.25,69.218 -6.25,162.031 0,18.75 0.51,47.027 1.57,84.848 1.01,37.812 1.56,66.09 1.56,84.84 0,13.63 8.63,20.47 25.94,20.47 26.56,0 66.79,-0.86 120.78,-2.5 53.94,-1.56 94.26,-2.35 120.94,-2.35 10.93,0 16.4,-8.08 16.4,-24.21 0,-14.61 -0.78,-36.649 -2.34,-66.098 -1.56,-29.492 -2.35,-51.524 -2.35,-66.094 0,-65.738 1.02,-110.308 3.13,-133.75 1.56,-18.238 17.19,-52.148 46.87,-101.719 31.33,-51.679 54.07,-77.5 68.13,-77.5 11.95,0 32.26,25.551 60.94,76.719 26.64,48.512 41.01,81.133 43.12,97.813 5.2,45.82 7.81,95.629 7.81,149.379 0,14.062 -1.32,35.39 -3.9,64.062 -2.62,28.75 -3.91,50.388 -3.91,64.998 0,9.88 5.47,14.84 16.41,14.84 26.56,0 66.29,1.02 119.22,3.13 53,2.18 92.81,3.28 119.37,3.28 13.52,0 22.66,-6.84 27.35,-20.47 7.26,-23.989 10.93,-79.489 10.93,-166.559 z m 575.04,-53.281 c 0,-12.5 -6.8,-18.75 -20.31,-18.75 -56.37,0 -100.74,1.558 -133.13,4.679 1.57,-39.058 3.13,-93.551 4.69,-163.429 0.51,-29.809 2.89,-81.411 7.19,-154.848 3.63,-66.25 5.47,-117.934 5.47,-155 0,-10.942 -7.35,-17.192 -22.03,-18.75 -17.74,-2.07 -62.03,-3.121 -132.97,-3.121 -58.99,0 -97.31,1.558 -115,4.679 -17.74,3.129 -26.56,13.79 -26.56,32.04 v 431.089 c 0,15.082 -10.43,22.661 -31.25,22.661 -3.68,0 -9.54,-0.282 -17.66,-0.79 -8.13,-0.539 -14.02,-0.781 -17.66,-0.781 -14.61,0 -22.15,4.141 -22.65,12.5 -4.69,45.391 -7.03,111.41 -7.03,197.973 0,19.258 9.88,30.978 29.68,35.158 17.82,1.56 35.82,2.85 54.07,3.9 -2.62,41.76 -3.91,74.38 -3.91,97.82 0,89.68 17.42,154.88 52.34,195.62 69.38,80.82 181.49,121.25 336.41,121.25 10.39,0 16.64,-3.12 18.75,-9.37 4.14,-23.44 10.19,-58.13 18.12,-104.07 0.51,-4.18 3.91,-18.75 10.16,-43.75 4.69,-19.37 7.03,-34.29 7.03,-44.68 0,-12.5 -18.55,-20.59 -55.62,-24.22 -42.74,-4.69 -69.03,-12.5 -78.91,-23.44 -17.3,-18.75 -25.94,-55.55 -25.94,-110.31 0,-17.19 1.29,-33.4 3.91,-48.6 14.69,0 37.38,0.51 68.12,1.57 30.71,1.01 53.95,1.56 69.69,1.56 15.63,0 23.44,-5.74 23.44,-17.19 0,-24.49 0.23,-61.369 0.78,-110.619 0.51,-49.301 0.78,-86.211 0.78,-110.781 z m 801.06,-79.692 c 0,-52.738 -17,-82.738 -50.94,-90 -5.74,-1.058 -59.69,-6.797 -161.88,-17.187 -61.56,-6.801 -153.36,-14.84 -275.31,-24.219 7.27,-33.981 29.42,-59.801 66.41,-77.5 30.31,-14.613 64.72,-21.871 103.28,-21.871 46.44,0 93.12,12.5 140,37.5 19.88,12.5 39.73,25 59.53,37.5 10.94,-5.242 29.3,-31.84 55.16,-79.852 25.82,-47.929 38.75,-78.398 38.75,-91.398 0,-3.68 -3.91,-9.653 -11.72,-17.973 -63.67,-68.359 -162.5,-102.5 -296.56,-102.5 -124.18,0 -224.34,36.25 -300.47,108.75 -78.25,73.512 -117.35,171.793 -117.35,294.844 0,120 34.92,218.316 104.85,295 71.95,79.258 167.42,118.908 286.4,118.908 100.08,0 185.08,-36.53 255,-109.529 69.89,-73.051 104.85,-159.852 104.85,-260.473 z M 3310,767.73 c 0,32.391 -11.48,60.821 -34.37,85.321 -22.93,24.449 -50.32,36.719 -82.19,36.719 -32.81,0 -59.92,-13.829 -81.25,-41.411 -19.92,-25.629 -29.85,-55.629 -29.85,-90 0,-14.058 7.35,-21.089 22.04,-21.089 38.51,0 98.47,5.968 179.84,17.96 17.19,2.579 25.78,6.758 25.78,12.5 z M 4920.12,324.141 c 0,-18.243 -7.89,-28.403 -23.6,-30.469 -15.62,-2.07 -54.22,-3.121 -115.78,-3.121 -63.67,0 -103.28,1.558 -118.9,4.679 -15.63,3.129 -23.44,15.86 -23.44,38.29 0,24.058 0.78,59.921 2.34,107.652 1.56,47.699 2.35,83.519 2.35,107.5 0,91.25 -1.06,156.168 -3.13,194.848 -3.12,62.07 -32.62,93.121 -88.44,93.121 -24.49,0 -48.86,-10.313 -73.12,-30.942 -24.3,-20.621 -37.74,-43.429 -40.31,-68.429 -2.11,-21.879 -3.13,-86.059 -3.13,-192.5 0,-24.5 0.78,-61.649 2.34,-111.411 1.57,-49.808 2.35,-87.269 2.35,-112.339 0,-17.192 -7.58,-25.79 -22.66,-25.79 h -237.03 c -14.61,0 -21.87,10.668 -21.87,32.04 0,24.57 0.78,61.32 2.34,110.308 1.56,49.063 2.34,86.094 2.34,111.094 0,19.258 -0.54,48.437 -1.56,87.5 -1.05,39.137 -1.56,68.668 -1.56,88.598 0,74.57 -28.44,111.871 -85.31,111.871 -22.93,0 -47.74,-8.911 -74.38,-26.719 -29.18,-19.301 -43.75,-39.613 -43.75,-60.942 0,-47.5 0.24,-118.429 0.78,-212.808 0.51,-94.371 0.78,-165.082 0.78,-212.031 0,-13.051 -1.56,-21.09 -4.68,-24.219 -3.13,-3.121 -11.21,-5.192 -24.22,-6.25 -23.44,-2.07 -60.47,-3.121 -111.1,-3.121 -32.93,0 -70.23,1.558 -111.87,4.679 -12.5,1.02 -19.96,2.86 -22.35,5.469 -2.3,2.582 -3.43,10.391 -3.43,23.442 0,41.757 0.23,104.218 0.78,187.339 0.51,83.211 0.78,145.711 0.78,187.5 0,85.508 -6.25,181.719 -18.75,288.602 -1.05,6.25 -1.56,10.938 -1.56,14.058 0,8.83 3.63,14.84 10.93,17.97 11.45,4.69 33.05,8.59 64.85,11.72 39.14,3.63 62.38,5.97 69.69,7.03 5.19,1.13 25.78,6.64 61.71,16.56 25.63,7.27 46.25,10.94 61.88,10.94 9.88,0 15.08,-18.13 15.62,-54.38 0.51,-36.25 2.58,-54.371 6.25,-54.371 5.2,2.071 11.18,5.7 17.97,10.942 46.96,36.439 83.99,61.479 111.1,75.149 40.19,19.26 83.75,28.91 130.62,28.91 48.01,0 90.78,-10.7 128.28,-32.03 42.27,-24.06 69.69,-57.74 82.19,-100.939 27.7,37.5 65.78,68.979 114.22,94.529 48.52,25.63 95.7,38.44 141.56,38.44 68.83,0 124.92,-15.94 168.28,-47.81 49.07,-35.941 73.6,-87.312 73.6,-154.07 0,-27.609 -0.86,-69.21 -2.5,-124.839 -1.57,-55.551 -2.35,-97.11 -2.35,-124.692 0,-32.929 0.78,-82.34 2.35,-148.277 1.64,-65.942 2.5,-115.391 2.5,-148.281 z m 1011.4,347.339 c 0,-111.558 -32.89,-204.14 -98.59,-277.652 -67.81,-76.168 -156.72,-114.219 -266.72,-114.219 -40.23,0 -83.28,9.922 -129.22,29.692 -45.86,19.758 -66.68,29.679 -62.5,29.679 -6.79,0 -10.15,-7.808 -10.15,-23.429 0,-26.571 1.29,-66.571 3.9,-120 2.58,-53.52 3.91,-93.602 3.91,-120.1604 0,-16.6406 -8.6,-25 -25.78,-25 l -159.53,-0.7812 c -36.06,0 -59.3,1.332 -69.69,3.9101 -15.63,3.6719 -23.44,13.2813 -23.44,28.9024 l 1.56,602.3481 c 0,121.558 -9.14,224.062 -27.34,307.5 -1.05,5.191 -1.56,9.6 -1.56,13.28 0,7.81 3.12,13 9.37,15.62 20.31,7.81 59.14,16.17 116.56,25.16 55.71,8.83 96.14,13.28 121.25,13.28 20.32,0 31.88,-13.44 34.69,-40.31 2.89,-26.878 6.45,-40.32 10.63,-40.32 -5.24,0 17.07,14.219 66.87,42.66 49.77,28.44 95.04,42.66 135.78,42.66 113.13,0 203.6,-37.31 271.41,-111.878 65.7,-71.992 98.59,-165.621 98.59,-280.942 z m -290.15,1.571 c 0,41.75 -12.82,78.277 -38.44,109.527 -27.62,32.891 -61.8,49.371 -102.5,49.371 -41.68,0 -75.08,-16.48 -100.16,-49.371 -21.87,-29.687 -32.81,-66.207 -32.81,-109.527 0,-44.301 11.45,-81.063 34.38,-110.321 24.57,-31.789 58.47,-47.652 101.71,-47.652 91.88,0 137.82,52.652 137.82,157.973 z m 1160,180 c 0,-101.18 -3.13,-162.742 -9.38,-184.692 -7.81,-26.058 -64.92,-120.429 -171.25,-283.129 -16.79,-25.621 -59.8,-84.839 -129.06,-177.652 C 6415,105.391 6371.41,51.4492 6360.9,45.6992 c -12.5,-7.8086 -92.58,-11.7187 -240.16,-11.7187 -22.42,0 -37.5,2.6211 -45.31,7.8203 -6.8,21.3594 -15.39,46.6406 -25.78,75.7812 -8.36,18.359 -16.68,36.867 -25,55.617 -12.11,27.11 -18.13,45.082 -18.13,53.91 0,10 4.42,15 13.28,15 145,0 217.5,33.09 217.5,99.219 0,5.703 -35.46,57.652 -106.4,155.781 -73.56,100.621 -113.99,164.219 -121.25,190.782 -4.18,15.199 -6.25,69.218 -6.25,162.031 0,18.75 0.51,47.027 1.56,84.848 1.02,37.812 1.56,66.09 1.56,84.84 0,13.63 8.64,20.47 25.94,20.47 26.56,0 66.8,-0.86 120.78,-2.5 53.95,-1.56 94.26,-2.35 120.94,-2.35 10.94,0 16.41,-8.08 16.41,-24.21 0,-14.61 -0.79,-36.649 -2.35,-66.098 -1.56,-29.492 -2.34,-51.524 -2.34,-66.094 0,-65.738 1.01,-110.308 3.12,-133.75 1.57,-18.238 17.19,-52.148 46.88,-101.719 31.33,-51.679 54.06,-77.5 68.12,-77.5 11.96,0 32.27,25.551 60.94,76.719 26.64,48.512 41.02,81.133 43.13,97.813 5.19,45.82 7.81,95.629 7.81,149.379 0,14.062 -1.33,35.39 -3.91,64.062 -2.61,28.75 -3.9,50.388 -3.9,64.998 0,9.88 5.46,14.84 16.4,14.84 26.56,0 66.29,1.02 119.22,3.13 53.01,2.18 92.81,3.28 119.38,3.28 13.51,0 22.65,-6.84 27.34,-20.47 7.27,-23.989 10.94,-79.489 10.94,-166.559 z"
         id="path82" /></clipPath><clipPath
       clipPathUnits="userSpaceOnUse"
       id="clipPath90"><path
         d="M 30,30 H 6810 V 1450 H 30 Z"
         id="path88" /></clipPath></defs><sodipodi:namedview
     pagecolor="#ffffff"
     bordercolor="#666666"
     borderopacity="1"
     objecttolerance="10"
     gridtolerance="10"
     guidetolerance="10"
     inkscape:pageopacity="0"
     inkscape:pageshadow="2"
     inkscape:window-width="1842"
     inkscape:window-height="1057"
     id="namedview12"
     showgrid="false"
     inkscape:zoom="0.71330945"
     inkscape:cx="362.77972"
     inkscape:cy="319.17712"
     inkscape:window-x="-8"
     inkscape:window-y="-8"
     inkscape:window-maximized="1"
     inkscape:current-layer="g86"
     inkscape:document-rotation="0" /><g
     id="g18"
     inkscape:groupmode="layer"
     inkscape:label="ink_ext_XXXXXX"
     transform="matrix(1.3333333,0,0,-1.3333333,0,197.33333)"><g
       id="g20"
       transform="scale(0.1)"><g
         id="g78"><g
           id="g80"
           clip-path="url(#clipPath84)"><g
             id="g86"
             clip-path="url(#clipPath90)"><g
               id="g381"
               transform="translate(-21.028742,-126.17245)"><path
                 d="m 1291.13,324.141 c 0,-18.243 -7.89,-28.403 -23.59,-30.469 -15.63,-2.07 -54.22,-3.121 -115.78,-3.121 -63.67,0 -103.28,1.558 -118.91,4.679 -15.62,3.129 -23.44,15.86 -23.44,38.29 0,24.058 0.79,59.921 2.35,107.652 1.56,47.699 2.34,83.519 2.34,107.5 0,91.25 -1.05,156.168 -3.12,194.848 -3.13,62.07 -32.621,93.121 -88.441,93.121 -24.488,0 -48.867,-10.313 -73.129,-30.942 -24.289,-20.621 -37.73,-43.429 -40.308,-68.429 -2.114,-21.879 -3.122,-86.059 -3.122,-192.5 0,-24.5 0.782,-61.649 2.34,-111.411 1.559,-49.808 2.34,-87.269 2.34,-112.339 0,-17.192 -7.57,-25.79 -22.648,-25.79 H 550.98 c -14.609,0 -21.878,10.668 -21.878,32.04 0,24.57 0.777,61.32 2.347,110.308 1.563,49.063 2.34,86.094 2.34,111.094 0,19.258 -0.551,48.437 -1.559,87.5 -1.058,39.137 -1.57,68.668 -1.57,88.598 0,74.57 -28.43,111.871 -85.308,111.871 -22.93,0 -47.731,-8.911 -74.372,-26.719 -29.179,-19.301 -43.75,-39.613 -43.75,-60.942 0,-47.5 0.231,-118.429 0.782,-212.808 0.508,-94.371 0.777,-165.082 0.777,-212.031 0,-13.051 -1.559,-21.09 -4.687,-24.219 -3.122,-3.121 -11.211,-5.192 -24.223,-6.25 -23.43,-2.07 -60.469,-3.121 -111.09,-3.121 -32.93,0 -70.238,1.558 -111.8788,4.679 -12.5,1.02 -19.961,2.86 -22.3399,5.469 -2.3008,2.582 -3.4414,10.391 -3.4414,23.442 0,41.757 0.2422,104.218 0.7813,187.339 0.5117,83.211 0.789,145.711 0.789,187.5 0,85.508 -6.25,181.719 -18.75,288.602 -1.0586,6.25 -1.5703,10.938 -1.5703,14.058 0,8.83 3.6406,14.84 10.9414,17.97 11.4492,4.69 33.0508,8.59 64.8397,11.72 39.141,3.63 62.391,5.97 69.692,7.03 5.199,1.13 25.777,6.64 61.718,16.56 25.629,7.27 46.25,10.94 61.879,10.94 9.883,0 15.071,-18.13 15.621,-54.38 0.512,-36.25 2.578,-54.371 6.25,-54.371 5.2,2.071 11.168,5.7 17.969,10.942 46.949,36.439 83.981,61.479 111.09,75.149 40.199,19.26 83.75,28.91 130.633,28.91 48.008,0 90.777,-10.7 128.277,-32.03 42.262,-24.06 69.691,-57.74 82.191,-100.939 27.692,37.5 65.782,68.979 114.219,94.529 48.512,25.63 95.701,38.44 141.561,38.44 68.83,0 124.92,-15.94 168.28,-47.81 49.06,-35.941 73.59,-87.312 73.59,-154.07 0,-27.609 -0.86,-69.21 -2.5,-124.839 -1.56,-55.551 -2.34,-97.11 -2.34,-124.692 0,-32.929 0.78,-82.34 2.34,-148.277 1.64,-65.942 2.5,-115.391 2.5,-148.281 z"
                 style="fill:none;stroke:#000000;stroke-width:60.293;stroke-linecap:square;stroke-linejoin:miter;stroke-miterlimit:4;stroke-dasharray:none;stroke-opacity:1"
                 id="path22" /><g
                 id="g24"
                 transform="scale(10)"><text
                   transform="matrix(1,0,0,-1,-2.55977,29.5227)"
                   style="font-variant:normal;font-weight:bold;font-size:160.211px;font-family:'Berlin Sans FB Demi';-inkscape-font-specification:BerlinSansFBDemi-Bold;writing-mode:lr-tb;fill:#ffffff;fill-opacity:1;fill-rule:nonzero;stroke:none"
                   id="text28"><tspan
                     x="0"
                     y="0"
                     id="tspan26">m</tspan></text></g><path
                 d="m 2207.81,853.051 c 0,-101.18 -3.12,-162.742 -9.37,-184.692 -7.81,-26.058 -64.92,-120.429 -171.25,-283.129 -16.8,-25.621 -59.81,-84.839 -129.06,-177.652 -76.68,-102.187 -120.28,-156.1288 -130.79,-161.8788 -12.5,-7.8086 -92.57,-11.7187 -240.15,-11.7187 -22.42,0 -37.5,2.6211 -45.31,7.8203 -6.8,21.3594 -15.4,46.6406 -25.79,75.7812 -8.36,18.359 -16.68,36.867 -25,55.617 -12.11,27.11 -18.12,45.082 -18.12,53.91 0,10 4.41,15 13.28,15 145,0 217.5,33.09 217.5,99.219 0,5.703 -35.47,57.652 -106.41,155.781 -73.55,100.621 -113.98,164.219 -121.25,190.782 -4.18,15.199 -6.25,69.218 -6.25,162.031 0,18.75 0.51,47.027 1.57,84.848 1.01,37.812 1.56,66.09 1.56,84.84 0,13.63 8.63,20.47 25.94,20.47 26.56,0 66.79,-0.86 120.78,-2.5 53.94,-1.56 94.26,-2.35 120.94,-2.35 10.93,0 16.4,-8.08 16.4,-24.21 0,-14.61 -0.78,-36.649 -2.34,-66.098 -1.56,-29.492 -2.35,-51.524 -2.35,-66.094 0,-65.738 1.02,-110.308 3.13,-133.75 1.56,-18.238 17.19,-52.148 46.87,-101.719 31.33,-51.679 54.07,-77.5 68.13,-77.5 11.95,0 32.26,25.551 60.94,76.719 26.64,48.512 41.01,81.133 43.12,97.813 5.2,45.82 7.81,95.629 7.81,149.379 0,14.062 -1.32,35.39 -3.9,64.062 -2.62,28.75 -3.91,50.388 -3.91,64.998 0,9.88 5.47,14.84 16.41,14.84 26.56,0 66.29,1.02 119.22,3.13 53,2.18 92.81,3.28 119.37,3.28 13.52,0 22.66,-6.84 27.35,-20.47 7.26,-23.989 10.93,-79.489 10.93,-166.559 z"
                 style="fill:none;stroke:#000000;stroke-width:60.293;stroke-linecap:square;stroke-linejoin:miter;stroke-miterlimit:4;stroke-dasharray:none;stroke-opacity:1"
                 id="path30" /><g
                 id="g32"
                 transform="scale(10)"><text
                   transform="matrix(1,0,0,-1,137.312,29.5227)"
                   style="font-variant:normal;font-weight:bold;font-size:160.211px;font-family:'Berlin Sans FB Demi';-inkscape-font-specification:BerlinSansFBDemi-Bold;writing-mode:lr-tb;fill:#ffffff;fill-opacity:1;fill-rule:nonzero;stroke:none"
                   id="text36"><tspan
                     x="0"
                     y="0"
                     id="tspan34">y</tspan></text></g><path
                 d="m 2782.85,799.77 c 0,-12.5 -6.8,-18.75 -20.31,-18.75 -56.37,0 -100.74,1.558 -133.13,4.679 1.57,-39.058 3.13,-93.551 4.69,-163.429 0.51,-29.809 2.89,-81.411 7.19,-154.848 3.63,-66.25 5.47,-117.934 5.47,-155 0,-10.942 -7.35,-17.192 -22.03,-18.75 -17.74,-2.07 -62.03,-3.121 -132.97,-3.121 -58.99,0 -97.31,1.558 -115,4.679 -17.74,3.129 -26.56,13.79 -26.56,32.04 v 431.089 c 0,15.082 -10.43,22.661 -31.25,22.661 -3.68,0 -9.54,-0.282 -17.66,-0.79 -8.13,-0.539 -14.02,-0.781 -17.66,-0.781 -14.61,0 -22.15,4.141 -22.65,12.5 -4.69,45.391 -7.03,111.41 -7.03,197.973 0,19.258 9.88,30.978 29.68,35.158 17.82,1.56 35.82,2.85 54.07,3.9 -2.62,41.76 -3.91,74.38 -3.91,97.82 0,89.68 17.42,154.88 52.34,195.62 69.38,80.82 181.49,121.25 336.41,121.25 10.39,0 16.64,-3.12 18.75,-9.37 4.14,-23.44 10.19,-58.13 18.12,-104.07 0.51,-4.18 3.91,-18.75 10.16,-43.75 4.69,-19.37 7.03,-34.29 7.03,-44.68 0,-12.5 -18.55,-20.59 -55.62,-24.22 -42.74,-4.69 -69.03,-12.5 -78.91,-23.44 -17.3,-18.75 -25.94,-55.55 -25.94,-110.31 0,-17.19 1.29,-33.4 3.91,-48.6 14.69,0 37.38,0.51 68.12,1.57 30.71,1.01 53.95,1.56 69.69,1.56 15.63,0 23.44,-5.74 23.44,-17.19 0,-24.49 0.23,-61.369 0.78,-110.619 0.51,-49.301 0.78,-86.211 0.78,-110.781 z"
                 style="fill:none;stroke:#000000;stroke-width:60.293;stroke-linecap:square;stroke-linejoin:miter;stroke-miterlimit:4;stroke-dasharray:none;stroke-opacity:1"
                 id="path38" /><g
                 id="g40"
                 transform="scale(10)"><text
                   transform="matrix(1,0,0,-1,223.52,29.5227)"
                   style="font-variant:normal;font-weight:bold;font-size:160.211px;font-family:'Berlin Sans FB Demi';-inkscape-font-specification:BerlinSansFBDemi-Bold;writing-mode:lr-tb;fill:#ffffff;fill-opacity:1;fill-rule:nonzero;stroke:none"
                   id="text44"><tspan
                     x="0"
                     y="0"
                     id="tspan42">f</tspan></text></g><path
                 d="m 3583.91,720.078 c 0,-52.738 -17,-82.738 -50.94,-90 -5.74,-1.058 -59.69,-6.797 -161.88,-17.187 -61.56,-6.801 -153.36,-14.84 -275.31,-24.219 7.27,-33.981 29.42,-59.801 66.41,-77.5 30.31,-14.613 64.72,-21.871 103.28,-21.871 46.44,0 93.12,12.5 140,37.5 19.88,12.5 39.73,25 59.53,37.5 10.94,-5.242 29.3,-31.84 55.16,-79.852 25.82,-47.929 38.75,-78.398 38.75,-91.398 0,-3.68 -3.91,-9.653 -11.72,-17.973 -63.67,-68.359 -162.5,-102.5 -296.56,-102.5 -124.18,0 -224.34,36.25 -300.47,108.75 -78.25,73.512 -117.35,171.793 -117.35,294.844 0,120 34.92,218.316 104.85,295 71.95,79.258 167.42,118.908 286.4,118.908 100.08,0 185.08,-36.53 255,-109.529 69.89,-73.051 104.85,-159.852 104.85,-260.473 z M 3310,767.73 c 0,32.391 -11.48,60.821 -34.37,85.321 -22.93,24.449 -50.32,36.719 -82.19,36.719 -32.81,0 -59.92,-13.829 -81.25,-41.411 -19.92,-25.629 -29.85,-55.629 -29.85,-90 0,-14.058 7.35,-21.089 22.04,-21.089 38.51,0 98.47,5.968 179.84,17.96 17.19,2.579 25.78,6.758 25.78,12.5 z"
                 style="fill:none;stroke:#000000;stroke-width:60.293;stroke-linecap:square;stroke-linejoin:miter;stroke-miterlimit:4;stroke-dasharray:none;stroke-opacity:1"
                 id="path46" /><g
                 id="g48"
                 transform="scale(10)"><text
                   transform="matrix(1,0,0,-1,280.079,29.5227)"
                   style="font-variant:normal;font-weight:bold;font-size:160.211px;font-family:'Berlin Sans FB Demi';-inkscape-font-specification:BerlinSansFBDemi-Bold;writing-mode:lr-tb;fill:#ffffff;fill-opacity:1;fill-rule:nonzero;stroke:none"
                   id="text52"><tspan
                     x="0"
                     y="0"
                     id="tspan50">e</tspan></text></g><path
                 d="m 4920.12,324.141 c 0,-18.243 -7.89,-28.403 -23.6,-30.469 -15.62,-2.07 -54.22,-3.121 -115.78,-3.121 -63.67,0 -103.28,1.558 -118.9,4.679 -15.63,3.129 -23.44,15.86 -23.44,38.29 0,24.058 0.78,59.921 2.34,107.652 1.56,47.699 2.35,83.519 2.35,107.5 0,91.25 -1.06,156.168 -3.13,194.848 -3.12,62.07 -32.62,93.121 -88.44,93.121 -24.49,0 -48.86,-10.313 -73.12,-30.942 -24.3,-20.621 -37.74,-43.429 -40.31,-68.429 -2.11,-21.879 -3.13,-86.059 -3.13,-192.5 0,-24.5 0.78,-61.649 2.34,-111.411 1.57,-49.808 2.35,-87.269 2.35,-112.339 0,-17.192 -7.58,-25.79 -22.66,-25.79 h -237.03 c -14.61,0 -21.87,10.668 -21.87,32.04 0,24.57 0.78,61.32 2.34,110.308 1.56,49.063 2.34,86.094 2.34,111.094 0,19.258 -0.54,48.437 -1.56,87.5 -1.05,39.137 -1.56,68.668 -1.56,88.598 0,74.57 -28.44,111.871 -85.31,111.871 -22.93,0 -47.74,-8.911 -74.38,-26.719 -29.18,-19.301 -43.75,-39.613 -43.75,-60.942 0,-47.5 0.24,-118.429 0.78,-212.808 0.51,-94.371 0.78,-165.082 0.78,-212.031 0,-13.051 -1.56,-21.09 -4.68,-24.219 -3.13,-3.121 -11.21,-5.192 -24.22,-6.25 -23.44,-2.07 -60.47,-3.121 -111.1,-3.121 -32.93,0 -70.23,1.558 -111.87,4.679 -12.5,1.02 -19.96,2.86 -22.35,5.469 -2.3,2.582 -3.43,10.391 -3.43,23.442 0,41.757 0.23,104.218 0.78,187.339 0.51,83.211 0.78,145.711 0.78,187.5 0,85.508 -6.25,181.719 -18.75,288.602 -1.05,6.25 -1.56,10.938 -1.56,14.058 0,8.83 3.63,14.84 10.93,17.97 11.45,4.69 33.05,8.59 64.85,11.72 39.14,3.63 62.38,5.97 69.69,7.03 5.19,1.13 25.78,6.64 61.71,16.56 25.63,7.27 46.25,10.94 61.88,10.94 9.88,0 15.08,-18.13 15.62,-54.38 0.51,-36.25 2.58,-54.371 6.25,-54.371 5.2,2.071 11.18,5.7 17.97,10.942 46.96,36.439 83.99,61.479 111.1,75.149 40.19,19.26 83.75,28.91 130.62,28.91 48.01,0 90.78,-10.7 128.28,-32.03 42.27,-24.06 69.69,-57.74 82.19,-100.939 27.7,37.5 65.78,68.979 114.22,94.529 48.52,25.63 95.7,38.44 141.56,38.44 68.83,0 124.92,-15.94 168.28,-47.81 49.07,-35.941 73.6,-87.312 73.6,-154.07 0,-27.609 -0.86,-69.21 -2.5,-124.839 -1.57,-55.551 -2.35,-97.11 -2.35,-124.692 0,-32.929 0.78,-82.34 2.35,-148.277 1.64,-65.942 2.5,-115.391 2.5,-148.281 z"
                 style="fill:none;stroke:#000000;stroke-width:60.293;stroke-linecap:square;stroke-linejoin:miter;stroke-miterlimit:4;stroke-dasharray:none;stroke-opacity:1"
                 id="path54" /><g
                 id="g56"
                 transform="scale(10)"><text
                   transform="matrix(1,0,0,-1,360.341,29.5227)"
                   style="font-variant:normal;font-weight:bold;font-size:160.211px;font-family:'Berlin Sans FB Demi';-inkscape-font-specification:BerlinSansFBDemi-Bold;writing-mode:lr-tb;fill:#ffffff;fill-opacity:1;fill-rule:nonzero;stroke:none"
                   id="text60"><tspan
                     x="0"
                     y="0"
                     id="tspan58">m</tspan></text></g><path
                 d="m 5931.52,671.48 c 0,-111.558 -32.89,-204.14 -98.59,-277.652 -67.81,-76.168 -156.72,-114.219 -266.72,-114.219 -40.23,0 -83.28,9.922 -129.22,29.692 -45.86,19.758 -66.68,29.679 -62.5,29.679 -6.79,0 -10.15,-7.808 -10.15,-23.429 0,-26.571 1.29,-66.571 3.9,-120 2.58,-53.52 3.91,-93.602 3.91,-120.1604 0,-16.6406 -8.6,-25 -25.78,-25 l -159.53,-0.7812 c -36.06,0 -59.3,1.332 -69.69,3.9101 -15.63,3.6719 -23.44,13.2813 -23.44,28.9024 l 1.56,602.3481 c 0,121.558 -9.14,224.062 -27.34,307.5 -1.05,5.191 -1.56,9.6 -1.56,13.28 0,7.81 3.12,13 9.37,15.62 20.31,7.81 59.14,16.17 116.56,25.16 55.71,8.83 96.14,13.28 121.25,13.28 20.32,0 31.88,-13.44 34.69,-40.31 2.89,-26.878 6.45,-40.32 10.63,-40.32 -5.24,0 17.07,14.219 66.87,42.66 49.77,28.44 95.04,42.66 135.78,42.66 113.13,0 203.6,-37.31 271.41,-111.878 65.7,-71.992 98.59,-165.621 98.59,-280.942 z m -290.15,1.571 c 0,41.75 -12.82,78.277 -38.44,109.527 -27.62,32.891 -61.8,49.371 -102.5,49.371 -41.68,0 -75.08,-16.48 -100.16,-49.371 -21.87,-29.687 -32.81,-66.207 -32.81,-109.527 0,-44.301 11.45,-81.063 34.38,-110.321 24.57,-31.789 58.47,-47.652 101.71,-47.652 91.88,0 137.82,52.652 137.82,157.973 z"
                 style="fill:none;stroke:#000000;stroke-width:60.293;stroke-linecap:square;stroke-linejoin:miter;stroke-miterlimit:4;stroke-dasharray:none;stroke-opacity:1"
                 id="path62" /><g
                 id="g64"
                 transform="scale(10)"><text
                   transform="matrix(1,0,0,-1,500.213,29.5227)"
                   style="font-variant:normal;font-weight:bold;font-size:160.211px;font-family:'Berlin Sans FB Demi';-inkscape-font-specification:BerlinSansFBDemi-Bold;writing-mode:lr-tb;fill:#ffffff;fill-opacity:1;fill-rule:nonzero;stroke:none"
                   id="text68"><tspan
                     x="0"
                     y="0"
                     id="tspan66">p</tspan></text></g><path
                 d="m 6801.37,853.051 c 0,-101.18 -3.13,-162.742 -9.38,-184.692 -7.81,-26.058 -64.92,-120.429 -171.25,-283.129 -16.79,-25.621 -59.8,-84.839 -129.06,-177.652 C 6415,105.391 6371.41,51.4492 6360.9,45.6992 c -12.5,-7.8086 -92.58,-11.7187 -240.16,-11.7187 -22.42,0 -37.5,2.6211 -45.31,7.8203 -6.8,21.3594 -15.39,46.6406 -25.78,75.7812 -8.36,18.359 -16.68,36.867 -25,55.617 -12.11,27.11 -18.13,45.082 -18.13,53.91 0,10 4.42,15 13.28,15 145,0 217.5,33.09 217.5,99.219 0,5.703 -35.46,57.652 -106.4,155.781 -73.56,100.621 -113.99,164.219 -121.25,190.782 -4.18,15.199 -6.25,69.218 -6.25,162.031 0,18.75 0.51,47.027 1.56,84.848 1.02,37.812 1.56,66.09 1.56,84.84 0,13.63 8.64,20.47 25.94,20.47 26.56,0 66.8,-0.86 120.78,-2.5 53.95,-1.56 94.26,-2.35 120.94,-2.35 10.94,0 16.41,-8.08 16.41,-24.21 0,-14.61 -0.79,-36.649 -2.35,-66.098 -1.56,-29.492 -2.34,-51.524 -2.34,-66.094 0,-65.738 1.01,-110.308 3.12,-133.75 1.57,-18.238 17.19,-52.148 46.88,-101.719 31.33,-51.679 54.06,-77.5 68.12,-77.5 11.96,0 32.27,25.551 60.94,76.719 26.64,48.512 41.02,81.133 43.13,97.813 5.19,45.82 7.81,95.629 7.81,149.379 0,14.062 -1.33,35.39 -3.91,64.062 -2.61,28.75 -3.9,50.388 -3.9,64.998 0,9.88 5.46,14.84 16.4,14.84 26.56,0 66.29,1.02 119.22,3.13 53.01,2.18 92.81,3.28 119.38,3.28 13.51,0 22.65,-6.84 27.34,-20.47 7.27,-23.989 10.94,-79.489 10.94,-166.559 z"
                 style="fill:none;stroke:#000000;stroke-width:60.293;stroke-linecap:square;stroke-linejoin:miter;stroke-miterlimit:4;stroke-dasharray:none;stroke-opacity:1"
                 id="path70" /><g
                 id="g72"
                 transform="scale(10)"><text
                   transform="matrix(1,0,0,-1,596.669,29.5227)"
                   style="font-variant:normal;font-weight:bold;font-size:160.211px;font-family:'Berlin Sans FB Demi';-inkscape-font-specification:BerlinSansFBDemi-Bold;writing-mode:lr-tb;fill:#ffffff;fill-opacity:1;fill-rule:nonzero;stroke:none"
                   id="text76"><tspan
                     x="0"
                     y="0"
                     id="tspan74">y</tspan></text></g><path
                 d="m 5816.56,1374.14 -590.12,340.71 590.12,340.7 z"
                 style="fill:none;stroke:#000000;stroke-width:6.92958;stroke-linecap:butt;stroke-linejoin:round;stroke-miterlimit:4;stroke-dasharray:none;stroke-opacity:1"
                 id="path92" /><path
                 d="m 5816.56,1374.14 -590.11,340.7 590.11,340.71 z"
                 style="fill:#009900;fill-opacity:1;fill-rule:nonzero;stroke:none"
                 id="path94" /><path
                 d="m 5816.56,2055.55 590.12,-340.7 -590.12,-340.71 z"
                 style="fill:none;stroke:#000000;stroke-width:6.92958;stroke-linecap:butt;stroke-linejoin:round;stroke-miterlimit:4;stroke-dasharray:none;stroke-opacity:1"
                 id="path96" /><path
                 d="m 5816.56,2055.55 590.12,-340.71 -590.12,-340.7 z"
                 style="fill:#009900;fill-opacity:1;fill-rule:nonzero;stroke:none"
                 id="path98" /><path
                 d="m 6406.68,1033.43 -590.12,340.71 590.12,340.71 z"
                 style="fill:none;stroke:#000000;stroke-width:6.92958;stroke-linecap:butt;stroke-linejoin:round;stroke-miterlimit:4;stroke-dasharray:none;stroke-opacity:1"
                 id="path100" /><path
                 d="m 6406.68,1033.44 -590.12,340.7 590.12,340.7 z"
                 style="fill:#009900;fill-opacity:1;fill-rule:nonzero;stroke:none"
                 id="path102" /><path
                 d="m 6406.68,1714.85 590.16,-340.7 -590.16,-340.72 z"
                 style="fill:none;stroke:#000000;stroke-width:6.92958;stroke-linecap:butt;stroke-linejoin:round;stroke-miterlimit:4;stroke-dasharray:none;stroke-opacity:1"
                 id="path104" /><path
                 d="m 6406.68,1714.84 590.16,-340.7 -590.16,-340.7 z"
                 style="fill:#009900;fill-opacity:1;fill-rule:nonzero;stroke:none"
                 id="path106" /><path
                 d="m 4636.33,1374.15 -590.12,340.69 590.12,340.71 z"
                 style="fill:none;stroke:#000000;stroke-width:6.92958;stroke-linecap:butt;stroke-linejoin:round;stroke-miterlimit:4;stroke-dasharray:none;stroke-opacity:1"
                 id="path108" /><path
                 d="m 4636.33,1374.14 -590.12,340.7 590.12,340.71 z"
                 style="fill:#ffb31a;fill-opacity:1;fill-rule:nonzero;stroke:none"
                 id="path110" /><path
                 d="m 4636.33,2055.55 590.11,-340.7 -590.11,-340.7 z"
                 style="fill:none;stroke:#000000;stroke-width:6.92958;stroke-linecap:butt;stroke-linejoin:round;stroke-miterlimit:4;stroke-dasharray:none;stroke-opacity:1"
                 id="path112" /><path
                 d="m 4636.33,2055.55 590.12,-340.71 -590.12,-340.7 z"
                 style="fill:#ffb31a;fill-opacity:1;fill-rule:nonzero;stroke:none"
                 id="path114" /><path
                 d="m 5226.45,1033.44 -590.12,340.71 590.11,340.7 z"
                 style="fill:none;stroke:#000000;stroke-width:6.92958;stroke-linecap:butt;stroke-linejoin:round;stroke-miterlimit:4;stroke-dasharray:none;stroke-opacity:1"
                 id="path116" /><path
                 d="m 5226.45,1033.44 -590.12,340.7 590.12,340.7 z"
                 style="fill:#009900;fill-opacity:1;fill-rule:nonzero;stroke:none"
                 id="path118" /><path
                 d="m 5226.44,1714.85 590.12,-340.71 -590.11,-340.7 z"
                 style="fill:none;stroke:#000000;stroke-width:6.92958;stroke-linecap:butt;stroke-linejoin:round;stroke-miterlimit:4;stroke-dasharray:none;stroke-opacity:1"
                 id="path120" /><path
                 d="m 5226.45,1714.84 590.11,-340.7 -590.11,-340.7 z"
                 style="fill:#009900;fill-opacity:1;fill-rule:nonzero;stroke:none"
                 id="path122" /><path
                 d="m 5816.57,692.738 -590.12,340.702 590.11,340.7 z"
                 style="fill:none;stroke:#000000;stroke-width:6.92958;stroke-linecap:butt;stroke-linejoin:round;stroke-miterlimit:4;stroke-dasharray:none;stroke-opacity:1"
                 id="path124" /><path
                 d="m 5816.56,692.73 -590.11,340.71 590.11,340.7 z"
                 style="fill:#009900;fill-opacity:1;fill-rule:nonzero;stroke:none"
                 id="path126" /><path
                 d="M 5816.56,1374.14 6406.68,1033.43 5816.57,692.738 Z"
                 style="fill:none;stroke:#000000;stroke-width:6.92958;stroke-linecap:butt;stroke-linejoin:round;stroke-miterlimit:4;stroke-dasharray:none;stroke-opacity:1"
                 id="path128" /><path
                 d="m 5816.56,1374.14 590.12,-340.7 -590.12,-340.71 z"
                 style="fill:#009900;fill-opacity:1;fill-rule:nonzero;stroke:none"
                 id="path130" /><path
                 d="m 3456.1,1374.14 -590.12,340.71 590.11,340.69 z"
                 style="fill:none;stroke:#000000;stroke-width:6.92958;stroke-linecap:butt;stroke-linejoin:round;stroke-miterlimit:4;stroke-dasharray:none;stroke-opacity:1"
                 id="path132" /><path
                 d="m 3456.09,1374.14 -590.11,340.7 590.11,340.71 z"
                 style="fill:#ffb31a;fill-opacity:1;fill-rule:nonzero;stroke:none"
                 id="path134" /><path
                 d="m 3456.09,2055.54 590.12,-340.7 -590.11,-340.7 z"
                 style="fill:none;stroke:#000000;stroke-width:6.92958;stroke-linecap:butt;stroke-linejoin:round;stroke-miterlimit:4;stroke-dasharray:none;stroke-opacity:1"
                 id="path136" /><path
                 d="m 3456.09,2055.55 590.12,-340.71 -590.12,-340.7 z"
                 style="fill:#ffb31a;fill-opacity:1;fill-rule:nonzero;stroke:none"
                 id="path138" /><path
                 d="m 4046.21,1033.44 -590.11,340.7 590.11,340.7 z"
                 style="fill:none;stroke:#000000;stroke-width:6.92958;stroke-linecap:butt;stroke-linejoin:round;stroke-miterlimit:4;stroke-dasharray:none;stroke-opacity:1"
                 id="path140" /><path
                 d="m 4046.21,1033.44 -590.12,340.7 590.12,340.7 z"
                 style="fill:#ffb31a;fill-opacity:1;fill-rule:nonzero;stroke:none"
                 id="path142" /><path
                 d="m 4046.21,1714.84 590.12,-340.69 -590.12,-340.71 z"
                 style="fill:none;stroke:#000000;stroke-width:6.92958;stroke-linecap:butt;stroke-linejoin:round;stroke-miterlimit:4;stroke-dasharray:none;stroke-opacity:1"
                 id="path144" /><path
                 d="m 4046.21,1714.84 590.12,-340.7 -590.12,-340.7 z"
                 style="fill:#ffb31a;fill-opacity:1;fill-rule:nonzero;stroke:none"
                 id="path146" /><path
                 d="m 4636.33,692.734 -590.12,340.706 590.12,340.71 z"
                 style="fill:none;stroke:#000000;stroke-width:6.92958;stroke-linecap:butt;stroke-linejoin:round;stroke-miterlimit:4;stroke-dasharray:none;stroke-opacity:1"
                 id="path148" /><path
                 d="m 4636.33,692.73 -590.12,340.71 590.12,340.7 z"
                 style="fill:#009900;fill-opacity:1;fill-rule:nonzero;stroke:none"
                 id="path150" /><path
                 d="M 4636.33,1374.15 5226.45,1033.44 4636.33,692.734 Z"
                 style="fill:none;stroke:#000000;stroke-width:6.92958;stroke-linecap:butt;stroke-linejoin:round;stroke-miterlimit:4;stroke-dasharray:none;stroke-opacity:1"
                 id="path152" /><path
                 d="m 4636.33,1374.14 590.12,-340.7 -590.12,-340.71 z"
                 style="fill:#009900;fill-opacity:1;fill-rule:nonzero;stroke:none"
                 id="path154" /><path
                 d="m 5226.45,352.031 -590.12,340.703 590.12,340.706 z"
                 style="fill:none;stroke:#000000;stroke-width:6.92958;stroke-linecap:butt;stroke-linejoin:round;stroke-miterlimit:4;stroke-dasharray:none;stroke-opacity:1"
                 id="path156" /><path
                 d="m 5226.45,352.031 -590.12,340.699 590.12,340.71 z"
                 style="fill:#009900;fill-opacity:1;fill-rule:nonzero;stroke:none"
                 id="path158" /><path
                 d="M 5226.45,1033.44 5816.57,692.738 5226.44,351.992 Z"
                 style="fill:none;stroke:#000000;stroke-width:6.92958;stroke-linecap:butt;stroke-linejoin:round;stroke-miterlimit:4;stroke-dasharray:none;stroke-opacity:1"
                 id="path160" /><path
                 d="M 5226.45,1033.44 5816.56,692.73 5226.45,351.988 Z"
                 style="fill:#009900;fill-opacity:1;fill-rule:nonzero;stroke:none"
                 id="path162" /><path
                 d="m 2275.86,1374.14 -590.16,340.7 590.16,340.71 z"
                 style="fill:none;stroke:#000000;stroke-width:6.92958;stroke-linecap:butt;stroke-linejoin:round;stroke-miterlimit:4;stroke-dasharray:none;stroke-opacity:1"
                 id="path164" /><path
                 d="m 2275.86,1374.14 -590.16,340.7 590.16,340.71 z"
                 style="fill:#ff6600;fill-opacity:1;fill-rule:nonzero;stroke:none"
                 id="path166" /><path
                 d="m 2275.86,2055.55 590.12,-340.7 -590.12,-340.71 z"
                 style="fill:none;stroke:#000000;stroke-width:6.92958;stroke-linecap:butt;stroke-linejoin:round;stroke-miterlimit:4;stroke-dasharray:none;stroke-opacity:1"
                 id="path168" /><path
                 d="m 2275.86,2055.55 590.12,-340.71 -590.12,-340.7 z"
                 style="fill:#ff6600;fill-opacity:1;fill-rule:nonzero;stroke:none"
                 id="path170" /><path
                 d="m 2865.98,1033.43 -590.12,340.71 590.12,340.71 z"
                 style="fill:none;stroke:#000000;stroke-width:6.92958;stroke-linecap:butt;stroke-linejoin:round;stroke-miterlimit:4;stroke-dasharray:none;stroke-opacity:1"
                 id="path172" /><path
                 d="m 2865.98,1033.44 -590.12,340.7 590.12,340.7 z"
                 style="fill:#ffb31a;fill-opacity:1;fill-rule:nonzero;stroke:none"
                 id="path174" /><path
                 d="M 2865.98,1714.85 3456.1,1374.14 2865.98,1033.43 Z"
                 style="fill:none;stroke:#000000;stroke-width:6.92958;stroke-linecap:butt;stroke-linejoin:round;stroke-miterlimit:4;stroke-dasharray:none;stroke-opacity:1"
                 id="path176" /><path
                 d="m 2865.98,1714.84 590.11,-340.7 -590.11,-340.7 z"
                 style="fill:#ffb31a;fill-opacity:1;fill-rule:nonzero;stroke:none"
                 id="path178" /><path
                 d="m 3456.1,692.73 -590.12,340.7 590.12,340.71 z"
                 style="fill:none;stroke:#000000;stroke-width:6.92958;stroke-linecap:butt;stroke-linejoin:round;stroke-miterlimit:4;stroke-dasharray:none;stroke-opacity:1"
                 id="path180" /><path
                 d="m 3456.09,692.73 -590.11,340.71 590.11,340.7 z"
                 style="fill:#ffb31a;fill-opacity:1;fill-rule:nonzero;stroke:none"
                 id="path182" /><path
                 d="M 3456.1,1374.14 4046.21,1033.44 3456.1,692.73 Z"
                 style="fill:none;stroke:#000000;stroke-width:6.92958;stroke-linecap:butt;stroke-linejoin:round;stroke-miterlimit:4;stroke-dasharray:none;stroke-opacity:1"
                 id="path184" /><path
                 d="m 3456.09,1374.14 590.12,-340.7 -590.12,-340.71 z"
                 style="fill:#ffb31a;fill-opacity:1;fill-rule:nonzero;stroke:none"
                 id="path186" /><path
                 d="M 4046.21,352.027 3456.1,692.73 4046.21,1033.44 Z"
                 style="fill:none;stroke:#000000;stroke-width:6.92958;stroke-linecap:butt;stroke-linejoin:round;stroke-miterlimit:4;stroke-dasharray:none;stroke-opacity:1"
                 id="path188" /><path
                 d="m 4046.21,352.031 -590.12,340.699 590.12,340.71 z"
                 style="fill:#009900;fill-opacity:1;fill-rule:nonzero;stroke:none"
                 id="path190" /><path
                 d="M 4046.21,1033.44 4636.33,692.734 4046.21,351.996 Z"
                 style="fill:none;stroke:#000000;stroke-width:6.92958;stroke-linecap:butt;stroke-linejoin:round;stroke-miterlimit:4;stroke-dasharray:none;stroke-opacity:1"
                 id="path192" /><path
                 d="M 4046.21,1033.44 4636.33,692.73 4046.21,351.988 Z"
                 style="fill:#009900;fill-opacity:1;fill-rule:nonzero;stroke:none"
                 id="path194" /><path
                 d="m 4636.34,11.293 -590.13,340.703 590.12,340.738 z"
                 style="fill:none;stroke:#000000;stroke-width:6.92958;stroke-linecap:butt;stroke-linejoin:round;stroke-miterlimit:4;stroke-dasharray:none;stroke-opacity:1"
                 id="path196" /><path
                 d="M 4636.33,11.2891 4046.21,351.988 4636.33,692.73 Z"
                 style="fill:#009900;fill-opacity:1;fill-rule:nonzero;stroke:none"
                 id="path198" /><path
                 d="M 4636.33,692.734 5226.44,351.992 4636.34,11.293 Z"
                 style="fill:none;stroke:#000000;stroke-width:6.92958;stroke-linecap:butt;stroke-linejoin:round;stroke-miterlimit:4;stroke-dasharray:none;stroke-opacity:1"
                 id="path200" /><path
                 d="M 4636.33,692.73 5226.45,351.988 4636.33,11.2891 Z"
                 style="fill:#009900;fill-opacity:1;fill-rule:nonzero;stroke:none"
                 id="path202" /><path
                 d="m 1095.59,1374.14 -590.121,340.71 590.121,340.69 z"
                 style="fill:none;stroke:#000000;stroke-width:6.92958;stroke-linecap:butt;stroke-linejoin:round;stroke-miterlimit:4;stroke-dasharray:none;stroke-opacity:1"
                 id="path204" /><path
                 d="m 1095.59,1374.14 -590.121,340.7 590.121,340.71 z"
                 style="fill:#ff6600;fill-opacity:1;fill-rule:nonzero;stroke:none"
                 id="path206" /><path
                 d="m 1095.59,2055.54 590.11,-340.7 -590.11,-340.7 z"
                 style="fill:none;stroke:#000000;stroke-width:6.92958;stroke-linecap:butt;stroke-linejoin:round;stroke-miterlimit:4;stroke-dasharray:none;stroke-opacity:1"
                 id="path208" /><path
                 d="m 1095.59,2055.55 590.11,-340.71 -590.11,-340.7 z"
                 style="fill:#ff6600;fill-opacity:1;fill-rule:nonzero;stroke:none"
                 id="path210" /><path
                 d="m 1685.7,1714.84 590.16,-340.7 -590.16,-340.7 z"
                 style="fill:none;stroke:#000000;stroke-width:6.92958;stroke-linecap:butt;stroke-linejoin:round;stroke-miterlimit:4;stroke-dasharray:none;stroke-opacity:1"
                 id="path212" /><path
                 d="m 1685.7,1714.84 590.16,-340.7 -590.16,-340.7 z"
                 style="fill:#ff6600;fill-opacity:1;fill-rule:nonzero;stroke:none"
                 id="path214" /><path
                 d="m 1685.7,1033.44 -590.11,340.7 590.11,340.7 z"
                 style="fill:none;stroke:#000000;stroke-width:6.92958;stroke-linecap:butt;stroke-linejoin:round;stroke-miterlimit:4;stroke-dasharray:none;stroke-opacity:1"
                 id="path216" /><path
                 d="m 1685.7,1033.44 -590.11,340.7 590.11,340.7 z"
                 style="fill:#ff6600;fill-opacity:1;fill-rule:nonzero;stroke:none"
                 id="path218" /><path
                 d="m 2275.86,692.738 -590.16,340.702 590.16,340.7 z"
                 style="fill:none;stroke:#000000;stroke-width:6.92958;stroke-linecap:butt;stroke-linejoin:round;stroke-miterlimit:4;stroke-dasharray:none;stroke-opacity:1"
                 id="path220" /><path
                 d="m 2275.86,692.73 -590.16,340.71 590.16,340.7 z"
                 style="fill:#ffb31a;fill-opacity:1;fill-rule:nonzero;stroke:none"
                 id="path222" /><path
                 d="M 2275.86,1374.14 2865.98,1033.43 2275.86,692.738 Z"
                 style="fill:none;stroke:#000000;stroke-width:6.92958;stroke-linecap:butt;stroke-linejoin:round;stroke-miterlimit:4;stroke-dasharray:none;stroke-opacity:1"
                 id="path224" /><path
                 d="m 2275.86,1374.14 590.12,-340.7 -590.12,-340.71 z"
                 style="fill:#ffb31a;fill-opacity:1;fill-rule:nonzero;stroke:none"
                 id="path226" /><path
                 d="m 2865.97,351.996 -590.11,340.742 590.12,340.692 z"
                 style="fill:none;stroke:#000000;stroke-width:6.92958;stroke-linecap:butt;stroke-linejoin:round;stroke-miterlimit:4;stroke-dasharray:none;stroke-opacity:1"
                 id="path228" /><path
                 d="m 2865.98,351.988 -590.12,340.742 590.12,340.71 z"
                 style="fill:#ffb31a;fill-opacity:1;fill-rule:nonzero;stroke:none"
                 id="path230" /><path
                 d="M 2865.98,1033.43 3456.1,692.73 2865.98,352.031 Z"
                 style="fill:none;stroke:#000000;stroke-width:6.92958;stroke-linecap:butt;stroke-linejoin:round;stroke-miterlimit:4;stroke-dasharray:none;stroke-opacity:1"
                 id="path232" /><path
                 d="M 2865.98,1033.44 3456.09,692.73 2865.98,352.031 Z"
                 style="fill:#ffb31a;fill-opacity:1;fill-rule:nonzero;stroke:none"
                 id="path234" /><path
                 d="M 3456.09,11.2891 2865.97,351.996 3456.1,692.73 Z"
                 style="fill:none;stroke:#000000;stroke-width:6.92958;stroke-linecap:butt;stroke-linejoin:round;stroke-miterlimit:4;stroke-dasharray:none;stroke-opacity:1"
                 id="path236" /><path
                 d="M 3456.09,11.2891 2865.98,351.988 3456.09,692.73 Z"
                 style="fill:#009900;fill-opacity:1;fill-rule:nonzero;stroke:none"
                 id="path238" /><path
                 d="M 3456.1,692.73 4046.21,352.027 3456.09,11.2891 Z"
                 style="fill:none;stroke:#000000;stroke-width:6.92958;stroke-linecap:butt;stroke-linejoin:round;stroke-miterlimit:4;stroke-dasharray:none;stroke-opacity:1"
                 id="path240" /><path
                 d="M 3456.09,692.73 4046.21,352.031 3456.09,11.2891 Z"
                 style="fill:#009900;fill-opacity:1;fill-rule:nonzero;stroke:none"
                 id="path242" /><path
                 d="M 4046.21,-329.414 3456.09,11.2891 4046.21,351.996 Z"
                 style="fill:none;stroke:#000000;stroke-width:6.92958;stroke-linecap:butt;stroke-linejoin:round;stroke-miterlimit:4;stroke-dasharray:none;stroke-opacity:1"
                 id="path244" /><path
                 d="M 4046.21,-329.41 3456.09,11.2891 4046.21,351.988 Z"
                 style="fill:#009900;fill-opacity:1;fill-rule:nonzero;stroke:none"
                 id="path246" /><path
                 d="M 4046.21,351.996 4636.34,11.293 4046.21,-329.414 Z"
                 style="fill:none;stroke:#000000;stroke-width:6.92958;stroke-linecap:butt;stroke-linejoin:round;stroke-miterlimit:4;stroke-dasharray:none;stroke-opacity:1"
                 id="path248" /><path
                 d="M 4046.21,351.988 4636.33,11.2891 4046.21,-329.41 Z"
                 style="fill:#009900;fill-opacity:1;fill-rule:nonzero;stroke:none"
                 id="path250" /><path
                 d="M 505.469,1033.43 -84.6523,1374.14 505.469,1714.85 Z"
                 style="fill:none;stroke:#000000;stroke-width:6.92958;stroke-linecap:butt;stroke-linejoin:round;stroke-miterlimit:4;stroke-dasharray:none;stroke-opacity:1"
                 id="path252" /><path
                 d="m 505.469,1033.44 -590.1174,340.7 590.1174,340.7 z"
                 style="fill:#ff6600;fill-opacity:1;fill-rule:nonzero;stroke:none"
                 id="path254" /><path
                 d="M 505.469,1714.85 1095.59,1374.14 505.469,1033.43 Z"
                 style="fill:none;stroke:#000000;stroke-width:6.92958;stroke-linecap:butt;stroke-linejoin:round;stroke-miterlimit:4;stroke-dasharray:none;stroke-opacity:1"
                 id="path256" /><path
                 d="m 505.469,1714.84 590.121,-340.7 -590.121,-340.7 z"
                 style="fill:#ff6600;fill-opacity:1;fill-rule:nonzero;stroke:none"
                 id="path258" /><path
                 d="M 1095.58,692.734 505.469,1033.43 1095.59,1374.14 Z"
                 style="fill:none;stroke:#000000;stroke-width:6.92958;stroke-linecap:butt;stroke-linejoin:round;stroke-miterlimit:4;stroke-dasharray:none;stroke-opacity:1"
                 id="path260" /><path
                 d="m 1095.59,692.73 -590.121,340.71 590.121,340.7 z"
                 style="fill:#ff6600;fill-opacity:1;fill-rule:nonzero;stroke:none"
                 id="path262" /><path
                 d="M 1095.59,1374.14 1685.7,1033.44 1095.58,692.734 Z"
                 style="fill:none;stroke:#000000;stroke-width:6.92958;stroke-linecap:butt;stroke-linejoin:round;stroke-miterlimit:4;stroke-dasharray:none;stroke-opacity:1"
                 id="path264" /><path
                 d="M 1095.59,1374.14 1685.7,1033.44 1095.59,692.73 Z"
                 style="fill:#ff6600;fill-opacity:1;fill-rule:nonzero;stroke:none"
                 id="path266" /><path
                 d="M 1685.71,351.996 1095.58,692.734 1685.7,1033.44 Z"
                 style="fill:none;stroke:#000000;stroke-width:6.92958;stroke-linecap:butt;stroke-linejoin:round;stroke-miterlimit:4;stroke-dasharray:none;stroke-opacity:1"
                 id="path268" /><path
                 d="M 1685.7,351.988 1095.59,692.73 1685.7,1033.44 Z"
                 style="fill:#ffb31a;fill-opacity:1;fill-rule:nonzero;stroke:none"
                 id="path270" /><path
                 d="M 1685.74,1033.44 2275.86,692.738 1685.74,352.031 Z"
                 style="fill:none;stroke:#000000;stroke-width:6.92958;stroke-linecap:butt;stroke-linejoin:round;stroke-miterlimit:4;stroke-dasharray:none;stroke-opacity:1"
                 id="path272" /><path
                 d="M 1685.74,1033.44 2275.86,692.73 1685.74,352.031 Z"
                 style="fill:#ffb31a;fill-opacity:1;fill-rule:nonzero;stroke:none"
                 id="path274" /><path
                 d="M 2275.86,11.2891 1685.71,351.996 2275.86,692.738 Z"
                 style="fill:none;stroke:#000000;stroke-width:6.92958;stroke-linecap:butt;stroke-linejoin:round;stroke-miterlimit:4;stroke-dasharray:none;stroke-opacity:1"
                 id="path276" /><path
                 d="M 2275.86,11.2891 1685.7,351.988 2275.86,692.73 Z"
                 style="fill:#ffb31a;fill-opacity:1;fill-rule:nonzero;stroke:none"
                 id="path278" /><path
                 d="M 2275.86,692.738 2865.98,352.031 2275.86,11.2891 Z"
                 style="fill:none;stroke:#000000;stroke-width:6.92958;stroke-linecap:butt;stroke-linejoin:round;stroke-miterlimit:4;stroke-dasharray:none;stroke-opacity:1"
                 id="path280" /><path
                 d="M 2275.86,692.73 2865.98,352.031 2275.86,11.2891 Z"
                 style="fill:#ffb31a;fill-opacity:1;fill-rule:nonzero;stroke:none"
                 id="path282" /><path
                 d="M 2865.97,-329.418 2275.86,11.2891 2865.97,351.996 Z"
                 style="fill:none;stroke:#000000;stroke-width:6.92958;stroke-linecap:butt;stroke-linejoin:round;stroke-miterlimit:4;stroke-dasharray:none;stroke-opacity:1"
                 id="path284" /><path
                 d="M 2865.98,-329.41 2275.86,11.2891 2865.98,351.988 Z"
                 style="fill:#009900;fill-opacity:1;fill-rule:nonzero;stroke:none"
                 id="path286" /><path
                 d="M 2865.98,352.031 3456.09,11.2891 2865.97,-329.418 Z"
                 style="fill:none;stroke:#000000;stroke-width:6.92958;stroke-linecap:butt;stroke-linejoin:round;stroke-miterlimit:4;stroke-dasharray:none;stroke-opacity:1"
                 id="path288" /><path
                 d="M 2865.98,352.031 3456.09,11.2891 2865.98,-329.41 Z"
                 style="fill:#009900;fill-opacity:1;fill-rule:nonzero;stroke:none"
                 id="path290" /><path
                 d="M -84.6523,1374.14 505.469,1033.43 -84.6445,692.734 Z"
                 style="fill:none;stroke:#000000;stroke-width:6.92958;stroke-linecap:butt;stroke-linejoin:round;stroke-miterlimit:4;stroke-dasharray:none;stroke-opacity:1"
                 id="path292" /><path
                 d="M -84.6484,1374.14 505.469,1033.44 -84.6484,692.73 Z"
                 style="fill:#ff6600;fill-opacity:1;fill-rule:nonzero;stroke:none"
                 id="path294" /><path
                 d="M 505.469,1033.43 1095.58,692.734 505.469,351.996 Z"
                 style="fill:none;stroke:#000000;stroke-width:6.92958;stroke-linecap:butt;stroke-linejoin:round;stroke-miterlimit:4;stroke-dasharray:none;stroke-opacity:1"
                 id="path296" /><path
                 d="M 505.469,1033.44 1095.59,692.73 505.469,351.988 Z"
                 style="fill:#ff6600;fill-opacity:1;fill-rule:nonzero;stroke:none"
                 id="path298" /><path
                 d="M 505.469,351.996 -84.6445,692.734 505.469,1033.43 Z"
                 style="fill:none;stroke:#000000;stroke-width:6.92958;stroke-linecap:butt;stroke-linejoin:round;stroke-miterlimit:4;stroke-dasharray:none;stroke-opacity:1"
                 id="path300" /><path
                 d="M 505.469,351.988 -84.6484,692.73 505.469,1033.44 Z"
                 style="fill:#ff6600;fill-opacity:1;fill-rule:nonzero;stroke:none"
                 id="path302" /><path
                 d="M 1095.59,11.2891 505.469,351.996 1095.58,692.734 Z"
                 style="fill:none;stroke:#000000;stroke-width:6.92958;stroke-linecap:butt;stroke-linejoin:round;stroke-miterlimit:4;stroke-dasharray:none;stroke-opacity:1"
                 id="path304" /><path
                 d="M 1095.59,11.2891 505.469,351.988 1095.59,692.73 Z"
                 style="fill:#ffb31a;fill-opacity:1;fill-rule:nonzero;stroke:none"
                 id="path306" /><path
                 d="M 1095.58,692.734 1685.71,351.996 1095.59,11.2891 Z"
                 style="fill:none;stroke:#000000;stroke-width:6.92958;stroke-linecap:butt;stroke-linejoin:round;stroke-miterlimit:4;stroke-dasharray:none;stroke-opacity:1"
                 id="path308" /><path
                 d="M 1095.59,692.73 1685.7,351.988 1095.59,11.2891 Z"
                 style="fill:#ffb31a;fill-opacity:1;fill-rule:nonzero;stroke:none"
                 id="path310" /><path
                 d="M 1685.71,-329.418 1095.59,11.2891 1685.71,351.996 Z"
                 style="fill:none;stroke:#000000;stroke-width:6.92958;stroke-linecap:butt;stroke-linejoin:round;stroke-miterlimit:4;stroke-dasharray:none;stroke-opacity:1"
                 id="path312" /><path
                 d="M 1685.7,-329.41 1095.59,11.2891 1685.7,351.988 Z"
                 style="fill:#ffb31a;fill-opacity:1;fill-rule:nonzero;stroke:none"
                 id="path314" /><path
                 d="M 1685.71,351.996 2275.86,11.2891 1685.71,-329.418 Z"
                 style="fill:none;stroke:#000000;stroke-width:6.92958;stroke-linecap:butt;stroke-linejoin:round;stroke-miterlimit:4;stroke-dasharray:none;stroke-opacity:1"
                 id="path316" /><path
                 d="M 1685.7,351.988 2275.86,11.2891 1685.7,-329.41 Z"
                 style="fill:#ffb31a;fill-opacity:1;fill-rule:nonzero;stroke:none"
                 id="path318" /><path
                 d="M -84.6445,692.734 505.469,351.996 -84.6523,11.2891 Z"
                 style="fill:none;stroke:#000000;stroke-width:6.92958;stroke-linecap:butt;stroke-linejoin:round;stroke-miterlimit:4;stroke-dasharray:none;stroke-opacity:1"
                 id="path320" /><path
                 d="M -84.6484,692.73 505.469,351.988 -84.6484,11.2891 Z"
                 style="fill:#ff6600;fill-opacity:1;fill-rule:nonzero;stroke:none"
                 id="path322" /><path
                 d="M 505.465,-329.418 -84.6523,11.2891 505.469,351.996 Z"
                 style="fill:none;stroke:#000000;stroke-width:6.92958;stroke-linecap:butt;stroke-linejoin:round;stroke-miterlimit:4;stroke-dasharray:none;stroke-opacity:1"
                 id="path324" /><path
                 d="M 505.469,-329.41 -84.6484,11.2891 505.469,351.988 Z"
                 style="fill:#ffb31a;fill-opacity:1;fill-rule:nonzero;stroke:none"
                 id="path326" /><path
                 d="M 505.469,351.996 1095.59,11.2891 505.465,-329.418 Z"
                 style="fill:none;stroke:#000000;stroke-width:6.92958;stroke-linecap:butt;stroke-linejoin:round;stroke-miterlimit:4;stroke-dasharray:none;stroke-opacity:1"
                 id="path328" /><path
                 d="M 505.469,351.988 1095.59,11.2891 505.469,-329.41 Z"
                 style="fill:#ffb31a;fill-opacity:1;fill-rule:nonzero;stroke:none"
                 id="path330" /><path
                 d="m 6996.83,692.738 -590.15,340.692 590.16,340.72 z"
                 style="fill:none;stroke:#000000;stroke-width:6.92958;stroke-linecap:butt;stroke-linejoin:round;stroke-miterlimit:4;stroke-dasharray:none;stroke-opacity:1"
                 id="path332" /><path
                 d="m 6996.84,692.73 -590.16,340.71 590.16,340.7 z"
                 style="fill:#0066ff;fill-opacity:1;fill-rule:nonzero;stroke:none"
                 id="path334" /><path
                 d="m 6406.68,351.996 -590.11,340.742 590.11,340.692 z"
                 style="fill:none;stroke:#000000;stroke-width:6.92958;stroke-linecap:butt;stroke-linejoin:round;stroke-miterlimit:4;stroke-dasharray:none;stroke-opacity:1"
                 id="path336" /><path
                 d="m 6406.68,351.988 -590.12,340.742 590.12,340.71 z"
                 style="fill:#0066ff;fill-opacity:1;fill-rule:nonzero;stroke:none"
                 id="path338" /><path
                 d="M 6406.68,1033.43 6996.83,692.738 6406.68,351.996 Z"
                 style="fill:none;stroke:#000000;stroke-width:6.92958;stroke-linecap:butt;stroke-linejoin:round;stroke-miterlimit:4;stroke-dasharray:none;stroke-opacity:1"
                 id="path340" /><path
                 d="M 6406.68,1033.44 6996.84,692.73 6406.68,351.988 Z"
                 style="fill:#0066ff;fill-opacity:1;fill-rule:nonzero;stroke:none"
                 id="path342" /><path
                 d="m 6996.84,11.293 -590.16,340.703 590.15,340.742 z"
                 style="fill:none;stroke:#000000;stroke-width:6.92958;stroke-linecap:butt;stroke-linejoin:round;stroke-miterlimit:4;stroke-dasharray:none;stroke-opacity:1"
                 id="path344" /><path
                 d="M 6996.84,11.2891 6406.68,351.988 6996.84,692.73 Z"
                 style="fill:#0066ff;fill-opacity:1;fill-rule:nonzero;stroke:none"
                 id="path346" /><path
                 d="M 5816.56,11.2891 5226.44,351.992 5816.57,692.738 Z"
                 style="fill:none;stroke:#000000;stroke-width:6.92958;stroke-linecap:butt;stroke-linejoin:round;stroke-miterlimit:4;stroke-dasharray:none;stroke-opacity:1"
                 id="path348" /><path
                 d="M 5816.56,11.2891 5226.45,351.988 5816.56,692.73 Z"
                 style="fill:#0066ff;fill-opacity:1;fill-rule:nonzero;stroke:none"
                 id="path350" /><path
                 d="M 5816.57,692.738 6406.68,351.996 5816.56,11.2891 Z"
                 style="fill:none;stroke:#000000;stroke-width:6.92958;stroke-linecap:butt;stroke-linejoin:round;stroke-miterlimit:4;stroke-dasharray:none;stroke-opacity:1"
                 id="path352" /><path
                 d="M 5816.56,692.73 6406.68,351.988 5816.56,11.2891 Z"
                 style="fill:#0066ff;fill-opacity:1;fill-rule:nonzero;stroke:none"
                 id="path354" /><path
                 d="M 6406.68,-329.418 5816.56,11.2891 6406.68,351.996 Z"
                 style="fill:none;stroke:#000000;stroke-width:6.92958;stroke-linecap:butt;stroke-linejoin:round;stroke-miterlimit:4;stroke-dasharray:none;stroke-opacity:1"
                 id="path356" /><path
                 d="M 6406.68,-329.41 5816.56,11.2891 6406.68,351.988 Z"
                 style="fill:#0066ff;fill-opacity:1;fill-rule:nonzero;stroke:none"
                 id="path358" /><path
                 d="M 6406.68,351.996 6996.84,11.293 6406.68,-329.418 Z"
                 style="fill:none;stroke:#000000;stroke-width:6.92958;stroke-linecap:butt;stroke-linejoin:round;stroke-miterlimit:4;stroke-dasharray:none;stroke-opacity:1"
                 id="path360" /><path
                 d="M 6406.68,351.988 6996.84,11.2891 6406.68,-329.41 Z"
                 style="fill:#0066ff;fill-opacity:1;fill-rule:nonzero;stroke:none"
                 id="path362" /><path
                 d="m 5226.45,-329.41 -590.11,340.703 590.1,340.699 z"
                 style="fill:none;stroke:#000000;stroke-width:6.92958;stroke-linecap:butt;stroke-linejoin:round;stroke-miterlimit:4;stroke-dasharray:none;stroke-opacity:1"
                 id="path364" /><path
                 d="M 5226.45,-329.41 4636.33,11.2891 5226.45,351.988 Z"
                 style="fill:#0066ff;fill-opacity:1;fill-rule:nonzero;stroke:none"
                 id="path366" /><path
                 d="M 5226.44,351.992 5816.56,11.2891 5226.45,-329.41 Z"
                 style="fill:none;stroke:#000000;stroke-width:6.92958;stroke-linecap:butt;stroke-linejoin:round;stroke-miterlimit:4;stroke-dasharray:none;stroke-opacity:1"
                 id="path368" /><path
                 d="M 5226.45,351.988 5816.56,11.2891 5226.45,-329.41 Z"
                 style="fill:#0066ff;fill-opacity:1;fill-rule:nonzero;stroke:none"
                 id="path370" /></g></g></g></g></g></g></svg>
